<?xml version="1.0" encoding="utf-8"?>
<!DOCTYPE svg PUBLIC "-//W3C//DTD SVG 1.0//EN" "http://www.w3.org/TR/2001/REC-SVG-20010904/DTD/svg10.dtd">
<svg version="1.0" xmlns="http://www.w3.org/2000/svg" width="500px" height="500px" viewBox="0 0 500 500" preserveAspectRatio="xMidYMid meet">
 <g fill="#428504">
  <path d="M 32.50 254.50 c -0.65 -0.40 -0.75 -4.45 -0.90 -30.60 -0.05 -23.75 0.05 -30.40 0.55 -31.40 0.60 -1.20 0.80 -1.25 5.35 -1.25 4.55 0 4.75 0.05 5.35 1.25 0.50 0.90 0.65 4.30 0.60 12.75 0 11.50 0 11.50 5.25 11.50 4.85 0 5.30 -0.10 6.50 -1.20 0.70 -0.65 4.05 -6.05 7.35 -12 3.35 -5.95 6.45 -11.20 6.85 -11.65 0.60 -0.75 1.60 -0.90 5.60 -0.90 5.50 0 6.25 0.40 5.55 2.80 -0.35 1.20 -13 23.60 -15.55 27.50 -0.60 1 -0.50 1.25 1.05 3.10 0.95 1.10 5.05 7.75 9.10 14.80 5.50 9.50 7.35 13.20 7.25 14.20 -0.15 1.35 -0.15 1.35 -5.75 1.50 -5.60 0.15 -5.60 0.15 -6.50 -1.25 -0.50 -0.75 -3.75 -6.30 -7.20 -12.35 -7.45 -13.05 -7.10 -12.80 -14.55 -12.80 -4.90 0 -4.90 0 -4.90 11.70 0 7.15 -0.20 12.25 -0.55 13.25 -0.55 1.55 -0.55 1.55 -5.10 1.55 -2.55 0 -4.95 -0.25 -5.35 -0.50 z "/>
  <path d="M 113.25 254.50 c -6.85 -1 -10.60 -4.40 -12.85 -11.55 -1 -3.30 -1.15 -4.70 -1.15 -12.80 0 -9.15 0 -9.15 1.90 -11 1.85 -1.90 1.85 -1.90 23.45 -2.05 20.05 -0.15 21.70 -0.10 22.25 0.70 1 1.35 0.85 8.90 -0.15 9.90 -0.65 0.70 -3.05 0.80 -18.55 0.80 -17.75 0 -17.75 0 -17.60 4.20 0.15 3.30 0.40 4.55 1.25 5.65 1.95 2.60 2.30 2.65 19.05 2.65 18.60 0 17.15 -0.60 17.15 7 0 7.60 1.40 7 -16.90 6.95 -8.45 -0.05 -16.45 -0.25 -17.85 -0.45 z "/>
  <path d="M 164.55 253.60 c -0.90 -2.15 -0.55 -34.65 0.40 -35.75 0.60 -0.75 2.55 -0.85 18.90 -0.85 12.10 0 18.55 -0.20 19.25 -0.55 2.10 -1.10 3.15 -7.15 1.90 -10.80 -1.10 -3.10 -1.50 -3.15 -21.65 -3.15 -13.60 0 -18.40 -0.15 -18.65 -0.60 -0.20 -0.30 -0.50 -2.35 -0.60 -4.50 -0.20 -3.05 -0.05 -4.15 0.60 -5.15 0.85 -1.30 0.85 -1.30 21.45 -1.15 20.40 0.15 20.60 0.15 22.95 1.30 5.05 2.50 7.40 7.20 7.80 15.65 0.45 10.35 -2.25 16.85 -8.05 19.35 -0.75 0.35 -1.85 0.60 -2.35 0.60 -0.55 0 -1 0.25 -1 0.55 0 0.35 3.05 5.80 6.75 12.15 3.70 6.40 6.75 11.95 6.75 12.35 0 1.60 -1.15 1.95 -6.35 1.95 -4.50 0 -5.25 -0.15 -6 -0.95 -0.45 -0.55 -3.90 -6.45 -7.70 -13.15 -6.85 -12.15 -6.85 -12.15 -15.05 -12.15 -8.15 0 -8.15 0 -8.30 12.45 -0.05 8.20 -0.30 12.70 -0.65 13.15 -0.40 0.45 -1.95 0.65 -5.20 0.65 -4.60 0 -4.65 0 -5.20 -1.40 z "/>
  <path d="M 235.85 254.65 c -0.85 -0.85 0.10 -3.80 6.35 -19.30 3.70 -9.15 8.55 -21.20 10.80 -26.85 5.95 -14.80 6.25 -15.35 9.70 -17.10 3.60 -1.85 8.85 -0.95 11.35 1.90 1.55 1.75 3.65 6.75 22.95 54.70 2.85 6.95 2.80 7 -4 7 -5.50 0 -5.50 0 -6.40 -1.85 -0.50 -1.05 -5.05 -12.20 -10.05 -24.75 -5.05 -12.60 -9.30 -22.90 -9.50 -22.90 -0.15 0 -2.50 5.55 -5.15 12.40 -4.85 12.35 -4.85 12.35 0.35 12.60 3.70 0.20 5.45 0.45 5.95 1 0.95 1 3.30 6.90 3.30 8.30 0 2.45 -0.90 2.70 -10.45 2.70 -8.90 0 -8.90 0 -11 5.40 -1.20 2.95 -2.50 5.75 -2.90 6.25 -0.65 0.70 -1.70 0.85 -5.90 0.85 -2.80 0 -5.25 -0.15 -5.40 -0.35 z "/>
  <path d="M 328.35 254.45 c -4.40 -1.05 -7.90 -3.65 -9.75 -7.30 -2.75 -5.40 -2.80 -5.65 -3 -31.05 -0.10 -17.75 0 -23.85 0.45 -24.40 0.80 -0.95 9.55 -1 10.35 -0.05 0.40 0.45 0.60 8.20 0.70 23.60 0.15 21.50 0.20 23.15 1.10 24.95 1.60 3.15 2.35 3.30 18.50 3.30 12.25 0 14.35 0.10 15 0.80 0.60 0.55 0.80 1.80 0.80 4.75 0 6.50 1.50 5.95 -16.65 5.90 -8.60 -0.05 -16.45 -0.25 -17.50 -0.50 z "/>
  <path d="M 379.45 254.15 c -1 -1.15 -1.30 -59.75 -0.30 -61.65 0.60 -1.15 0.90 -1.25 5.05 -1.40 2.80 -0.10 4.65 0.05 5.10 0.45 0.60 0.50 0.70 5.60 0.70 31.40 0 23.35 -0.15 31 -0.60 31.45 -0.35 0.35 -2.25 0.60 -4.95 0.60 -3.40 0 -4.45 -0.15 -5 -0.85 z "/>
  <path d="M 407.10 254.40 c -0.35 -0.35 -0.60 -0.90 -0.60 -1.30 0 -0.40 4.85 -7.55 10.75 -15.95 5.90 -8.35 10.75 -15.45 10.75 -15.80 0 -0.35 -4.15 -6.40 -9.25 -13.45 -5.05 -7.10 -9.45 -13.35 -9.75 -13.90 -0.40 -0.70 -0.40 -1.30 0 -2 0.50 -0.90 1.05 -1 6 -1 4.65 0 5.65 0.15 6.40 0.90 0.50 0.50 3.90 5.25 7.55 10.55 3.65 5.30 6.80 9.55 7.05 9.45 0.20 -0.10 3.70 -4.65 7.75 -10.15 4 -5.50 7.70 -10.15 8.15 -10.35 0.45 -0.20 3 -0.35 5.65 -0.35 5.10 -0.05 6.35 0.45 5.85 2.30 -0.15 0.50 -4.60 6.85 -9.90 14.15 -5.30 7.30 -9.75 13.60 -9.85 14.05 -0.15 0.45 4.10 6.90 9.85 15.10 5.50 7.90 10.30 14.90 10.60 15.60 1 2.25 -0.05 2.75 -6.05 2.75 -2.90 0 -5.55 -0.20 -5.90 -0.40 -0.35 -0.20 -4.20 -5.45 -8.55 -11.60 -4.35 -6.20 -8.10 -11.25 -8.35 -11.25 -0.20 0 -3.95 5.05 -8.30 11.20 -4.35 6.20 -8.20 11.40 -8.55 11.65 -1.05 0.65 -10.60 0.50 -11.30 -0.20 z "/>
  <path d="M 99.60 201.90 c -0.80 -0.80 -0.80 -9.50 0 -10.30 0.45 -0.45 6.45 -0.60 24 -0.60 27.20 0 24.60 -0.70 24.30 6.35 -0.10 3.05 -0.35 4.30 -0.90 4.65 -1.20 0.75 -46.65 0.65 -47.40 -0.10 z "/>
 </g>
 <g fill="#ddb117">
  <path d="M 54 296.50 c 0 -5.45 0 -5.45 5.90 -5.60 5.85 -0.15 5.85 -0.15 5.85 -1.90 0 -1.75 0 -1.75 -5.75 -2 -5.75 -0.25 -5.75 -0.25 -5.90 -1.85 -0.15 -1.65 -0.15 -1.65 6.15 -1.65 3.45 0 6.75 0.20 7.25 0.50 2.85 1.55 2.15 10 -0.85 10 -0.90 0 -0.90 -0.05 1.35 3.80 1.10 1.90 2 3.60 2 3.80 0 0.25 -0.85 0.40 -1.85 0.40 -1.85 0 -1.95 -0.10 -3.90 -3.75 -2 -3.75 -2 -3.75 -4.35 -3.75 -2.40 0 -2.40 0 -2.40 3.75 0 3.75 0 3.75 -1.75 3.75 -1.75 0 -1.75 0 -1.75 -5.50 z "/>
  <path d="M 76.65 300.80 c -1.40 -1.20 -1.40 -1.30 -1.55 -7.75 -0.20 -6.55 -0.20 -6.55 1.30 -8.05 1.50 -1.45 1.65 -1.50 6.35 -1.50 7.65 0 8.75 1.15 8.75 9.35 0 4.80 -0.95 7.75 -2.80 8.60 -0.70 0.30 -3.35 0.55 -5.95 0.55 -4.25 0 -4.85 -0.10 -6.10 -1.20 z  m 10.75 -2.90 c 0.80 -0.80 0.80 -9.50 0 -10.30 -0.35 -0.35 -2.15 -0.60 -4.50 -0.60 -3.75 0 -3.95 0.05 -4.40 1.30 -0.30 0.70 -0.50 2.70 -0.50 4.45 0 1.75 0.20 3.75 0.50 4.45 0.45 1.25 0.65 1.30 4.40 1.30 2.35 0 4.15 -0.25 4.50 -0.60 z "/>
  <path d="M 98.15 301.25 c -1.50 -1.05 -2.15 -3.70 -2.15 -8.80 0 -7.95 1.25 -9.15 9.20 -8.90 4.65 0.20 4.95 0.25 6.10 1.60 1.10 1.30 1.20 1.80 1.20 7.15 0 6.35 -0.60 8.40 -2.80 9.20 -2.10 0.80 -10.30 0.60 -11.55 -0.25 z  m 10.75 -3.60 c 0.45 -1.15 0.45 -8.65 0 -9.75 -0.30 -0.75 -1.05 -0.90 -4.60 -0.90 -4.95 0 -4.80 -0.20 -4.80 5.75 0 5.95 -0.15 5.75 4.80 5.75 3.55 0 4.30 -0.15 4.60 -0.85 z "/>
  <path d="M 124 294.55 c 0 -7.50 0 -7.50 -3.10 -7.65 -3.15 -0.15 -3.15 -0.15 -3.30 -1.80 -0.15 -1.60 -0.15 -1.60 7.85 -1.60 5.05 0 8.10 0.20 8.30 0.55 0.20 0.25 0.20 1.05 0.05 1.75 -0.30 1.10 -0.55 1.20 -3.30 1.20 -2.95 0 -2.95 0 -3.10 7.40 -0.15 7.35 -0.15 7.35 -1.75 7.50 -1.65 0.15 -1.65 0.15 -1.65 -7.35 z "/>
  <path d="M 140.25 300.80 c -1.35 -1.10 -1.50 -1.45 -1.65 -5.05 -0.15 -2.90 -0.05 -4 0.45 -4.30 0.40 -0.25 3.60 -0.45 7.10 -0.45 6.40 0 6.40 0 6.25 1.65 -0.15 1.60 -0.15 1.60 -5.50 1.75 -3 0.05 -5.40 0.35 -5.40 0.60 0 0.25 0.20 1 0.50 1.70 0.45 1.30 0.55 1.30 5.50 1.30 5 0 5 0 5 2 0 2 0 2 -5.35 2 -4.95 0 -5.55 -0.10 -6.90 -1.20 z "/>
  <path d="M 157.70 301.35 c -0.10 -0.35 -0.15 -4.45 -0.10 -9.10 0.15 -8.50 0.15 -8.50 5.50 -8.65 8.50 -0.20 9.90 1.10 9.90 9.25 0 4.95 -0.90 7.45 -3 8.50 -1.75 0.90 -11.95 0.90 -12.30 0 z  m 11.20 -3.45 c 0.40 -0.40 0.60 -2.30 0.60 -5.15 0 -2.85 -0.20 -4.75 -0.60 -5.15 -0.35 -0.35 -2.15 -0.60 -4.50 -0.60 -3.90 0 -3.90 0 -3.90 5.75 0 5.75 0 5.75 3.90 5.75 2.35 0 4.15 -0.25 4.50 -0.60 z "/>
  <path d="M 195.80 300.90 c -0.80 -1.25 -5.30 -15.80 -5.30 -17.10 0 -1.15 2.80 -1.10 3.40 0.05 0.25 0.50 1.20 3.55 2.15 6.75 0.90 3.25 1.80 5.75 2 5.50 0.20 -0.20 1.20 -3.10 2.25 -6.50 1.65 -5.35 2.05 -6.15 3.10 -6.45 0.70 -0.15 1.60 -0.05 2.05 0.20 0.45 0.30 1.55 3.15 2.55 6.55 0.95 3.30 1.90 6.15 2.05 6.30 0.15 0.15 1.15 -2.55 2.20 -6.10 1.10 -3.50 2.20 -6.50 2.50 -6.70 0.80 -0.60 3.25 -0.45 3.25 0.15 0 1.10 -5 16.15 -5.75 17.30 -1.05 1.55 -3.45 1.60 -4.40 0.05 -0.40 -0.65 -1.35 -3.35 -2.15 -6 -0.85 -3 -1.55 -4.65 -1.80 -4.25 -0.20 0.30 -1.10 2.80 -1.90 5.45 -1.55 4.95 -2.30 5.90 -4.45 5.90 -0.55 0 -1.35 -0.50 -1.75 -1.10 z "/>
  <path d="M 223 292.75 c 0 -9.25 0 -9.25 1.50 -9.25 1.50 0 1.50 0 1.50 9.25 0 9.25 0 9.25 -1.50 9.25 -1.50 0 -1.50 0 -1.50 -9.25 z "/>
  <path d="M 237.50 294.50 c 0 -7.45 0 -7.45 -3.10 -7.60 -3.15 -0.15 -3.15 -0.15 -3.30 -1.80 -0.15 -1.60 -0.15 -1.60 7.85 -1.60 5.05 0 8.10 0.20 8.30 0.55 0.20 0.25 0.20 1.05 0.05 1.75 -0.30 1.10 -0.55 1.20 -3.30 1.20 -3 0 -3 0 -3 7.50 0 7.50 0 7.50 -1.75 7.50 -1.75 0 -1.75 0 -1.75 -7.50 z "/>
  <path d="M 252 292.75 c 0 -9.25 0 -9.25 1.50 -9.25 1.50 0 1.50 0 1.50 3.75 0 3.75 0 3.75 4.25 3.75 4.20 0 4.20 0 4.35 -3.60 0.15 -3.65 0.15 -3.65 1.80 -3.80 1.60 -0.15 1.60 -0.15 1.60 9.15 0 9.30 0 9.30 -1.60 9.15 -1.65 -0.15 -1.65 -0.15 -1.80 -3.75 -0.15 -3.65 -0.15 -3.65 -4.35 -3.65 -4.25 0 -4.25 0 -4.25 3.75 0 3.75 0 3.75 -1.50 3.75 -1.50 0 -1.50 0 -1.50 -9.25 z "/>
  <path d="M 291 294.50 c 0 -7.45 0 -7.45 -3.10 -7.60 -3.15 -0.15 -3.15 -0.15 -3.30 -1.80 -0.15 -1.60 -0.15 -1.60 7.85 -1.60 5.05 0 8.10 0.20 8.30 0.55 0.20 0.25 0.20 1.05 0.05 1.75 -0.30 1.10 -0.55 1.20 -3.30 1.20 -3 0 -3 0 -3 7.50 0 7.50 0 7.50 -1.75 7.50 -1.75 0 -1.75 0 -1.75 -7.50 z "/>
  <path d="M 305.50 296.50 c 0 -5.45 0 -5.45 5.90 -5.60 5.85 -0.15 5.85 -0.15 5.85 -1.90 0 -1.75 0 -1.75 -5.75 -2 -5.75 -0.25 -5.75 -0.25 -5.90 -1.85 -0.15 -1.65 -0.15 -1.65 6.30 -1.65 6.25 0 6.45 0.05 7.65 1.30 2.25 2.45 1.25 9.20 -1.40 9.20 -0.90 0 -0.90 -0.05 1.35 3.90 1.10 1.90 2 3.60 2 3.80 0 0.20 -0.85 0.30 -1.85 0.20 -1.75 -0.15 -2 -0.35 -3.90 -3.75 -2 -3.65 -2 -3.65 -4.35 -3.65 -2.40 0 -2.40 0 -2.40 3.75 0 3.75 0 3.75 -1.75 3.75 -1.75 0 -1.75 0 -1.75 -5.50 z "/>
  <path d="M 326 301.75 c 0 -0.60 6.60 -16.70 7.15 -17.40 1.10 -1.40 2.75 -1.50 3.90 -0.25 0.95 1.05 7.45 16.35 7.45 17.50 0 0.25 -0.80 0.40 -1.80 0.30 -1.75 -0.15 -1.75 -0.15 -4.30 -6.65 -1.40 -3.55 -2.70 -6.70 -2.90 -6.90 -0.20 -0.25 -0.85 0.75 -1.40 2.25 -0.55 1.45 -1.15 3.05 -1.35 3.55 -0.30 0.70 -0.10 0.85 1.20 0.85 1 0 1.70 0.35 2.05 1.05 0.95 1.75 0.30 2.45 -2.50 2.45 -2.45 0 -2.60 0.10 -3.30 1.75 -0.60 1.55 -0.95 1.75 -2.45 1.75 -0.95 0 -1.75 -0.10 -1.75 -0.25 z "/>
  <path d="M 349.70 301.35 c -0.10 -0.35 -0.15 -4.45 -0.10 -9.10 0.15 -8.50 0.15 -8.50 5.50 -8.65 8.50 -0.20 9.90 1.10 9.90 9.25 0 4.95 -0.90 7.45 -3 8.50 -1.75 0.90 -11.95 0.90 -12.30 0 z  m 11.20 -3.45 c 0.40 -0.40 0.60 -2.30 0.60 -5.15 0 -2.85 -0.20 -4.75 -0.60 -5.15 -0.35 -0.35 -2.15 -0.60 -4.50 -0.60 -3.90 0 -3.90 0 -3.90 5.75 0 5.75 0 5.75 3.90 5.75 2.35 0 4.15 -0.25 4.50 -0.60 z "/>
  <path d="M 369.90 293.25 c -0.10 -4.80 -0.05 -9 0 -9.25 0.10 -0.30 0.85 -0.50 1.65 -0.50 1.45 0 1.45 0 1.45 9.25 0 9.25 0 9.25 -1.50 9.25 -1.45 0 -1.45 0 -1.60 -8.75 z "/>
  <path d="M 384.35 301.65 c -0.20 -0.15 -0.35 -3.55 -0.35 -7.50 0 -7.15 0 -7.15 -2.95 -7.15 -2.55 0 -2.95 -0.15 -3.20 -1.05 -0.60 -2.35 -0.25 -2.45 8.25 -2.45 7.95 0 7.95 0 7.80 1.60 -0.15 1.65 -0.15 1.65 -3.25 1.80 -3.15 0.15 -3.15 0.15 -3.15 7.60 0 7.50 0 7.50 -1.40 7.50 -0.80 0 -1.60 -0.15 -1.75 -0.35 z "/>
  <path d="M 399 292.75 c 0 -9.25 0 -9.25 1.50 -9.25 1.50 0 1.50 0 1.50 9.25 0 9.25 0 9.25 -1.50 9.25 -1.50 0 -1.50 0 -1.50 -9.25 z "/>
  <path d="M 408.65 300.80 c -1.40 -1.20 -1.40 -1.30 -1.55 -7.75 -0.20 -6.55 -0.20 -6.55 1.30 -8.05 1.50 -1.45 1.65 -1.50 6.35 -1.50 7.65 0 8.75 1.15 8.75 9.35 0 4.80 -0.95 7.75 -2.80 8.60 -0.70 0.30 -3.35 0.55 -5.95 0.55 -4.25 0 -4.85 -0.10 -6.10 -1.20 z  m 10.75 -2.90 c 0.40 -0.40 0.60 -2.30 0.60 -5.15 0 -2.85 -0.20 -4.75 -0.60 -5.15 -0.35 -0.35 -2.15 -0.60 -4.50 -0.60 -3.75 0 -3.95 0.05 -4.40 1.30 -0.30 0.70 -0.50 2.70 -0.50 4.45 0 1.75 0.20 3.75 0.50 4.45 0.45 1.25 0.65 1.30 4.40 1.30 2.35 0 4.15 -0.25 4.50 -0.60 z "/>
  <path d="M 428 293.35 c 0 -6.05 0.20 -8.85 0.60 -9.25 0.35 -0.35 1.45 -0.60 2.45 -0.60 2.20 0 2.35 0.20 6.75 8.10 1.60 2.95 3.10 5.40 3.35 5.40 0.20 0 0.35 -3.05 0.35 -6.75 0 -6.75 0 -6.75 1.50 -6.75 1.50 0 1.50 0 1.50 8.70 0 9.70 -0.10 10 -3.30 9.70 -1.80 -0.15 -1.90 -0.30 -5.65 -6.85 -3.80 -6.70 -3.80 -6.70 -3.95 0.15 -0.15 6.80 -0.15 6.80 -1.85 6.80 -1.75 0 -1.75 0 -1.75 -8.65 z "/>
  <path d="M 138.85 286.70 c -0.20 -0.20 -0.35 -1 -0.35 -1.80 0 -1.40 0 -1.40 7.05 -1.40 7 0 7 0 6.85 1.65 -0.15 1.60 -0.15 1.60 -6.70 1.75 -3.55 0.05 -6.65 -0.05 -6.85 -0.20 z "/>
 </g>
</svg>