<?xml version="1.0" encoding="utf-8"?>
<!DOCTYPE svg PUBLIC "-//W3C//DTD SVG 1.0//EN" "http://www.w3.org/TR/2001/REC-SVG-20010904/DTD/svg10.dtd">
<svg version="1.0" xmlns="http://www.w3.org/2000/svg" width="500px" height="500px" viewBox="0 0 500 500" preserveAspectRatio="xMidYMid meet">
 <g fill="#dbb221">
  <path d="M269.10 359.55 C 269.10 370.10 260.55 378.65 250 378.65 239.45 378.65 230.90 370.10 230.90 359.55 230.90 349 239.45 340.45 250 340.45 260.55 340.45 269.10 349 269.10 359.55 Z M243.15 377.40  M265.90 359.65 C 265.90 350.85 258.80 343.75 250 343.75 241.20 343.75 234.10 350.85 234.10 359.65 234.10 368.45 241.20 375.55 250 375.55 258.80 375.55 265.90 368.45 265.90 359.65 Z M257.55 373.65 "/>
  <path d="M240.10 325.05 C 240.10 335.60 231.55 344.15 221 344.15 210.45 344.15 201.90 335.60 201.90 325.05 201.90 314.50 210.45 305.95 221 305.95 231.55 305.95 240.10 314.50 240.10 325.05 Z M214.65 343.05  M237 325.10 C 237 316.30 229.85 309.15 221 309.15 212.20 309.15 205.05 316.30 205.05 325.10 205.05 333.90 212.20 341.05 221 341.05 229.85 341.05 237 333.90 237 325.10 Z M226.55 340.25 "/>
  <path d="M298.10 325.05 C 298.10 335.60 289.50 344.15 278.95 344.15 268.40 344.15 259.85 335.60 259.85 325.05 259.85 314.50 268.40 305.95 278.95 305.95 289.50 305.95 298.10 314.50 298.10 325.05 Z M273.15 343.30  M294.95 325.10 C 294.95 316.30 287.80 309.15 278.95 309.15 270.15 309.15 263 316.30 263 325.10 263 333.90 270.15 341.05 278.95 341.05 287.80 341.05 294.95 333.90 294.95 325.10 Z M285.30 339.80 "/>
  <path d="M 85.70 290.90 c -0.40 -0.60 0.35 -5.45 1.15 -8.15 5.60 -17.95 26.55 -32.80 54.40 -38.55 9.15 -1.85 20 -2.50 29.95 -1.80 15.35 1.10 25.90 3.95 39.25 10.55 15.70 7.75 27.15 20.40 29.80 32.85 0.40 1.90 0.75 3.90 0.75 4.45 0 1 -0.35 1 -77.55 1 -42.65 0 -77.65 -0.15 -77.75 -0.35 z  m 143.80 -8.45 c 0 -0.85 -0.70 -3.15 -1.50 -5.15 -4.20 -10.10 -18.45 -19.60 -36.45 -24.30 -11.05 -2.95 -32.35 -4 -45.15 -2.25 -15.95 2.20 -29.25 7.35 -38.85 15.05 -6.40 5.15 -10.55 11.65 -10.55 16.45 0 1.75 0 1.75 66.25 1.75 66.25 0 66.25 0 66.25 -1.55 z "/>
  <path d="M 259.20 291.05 c -0.45 -0.45 -0.15 -4 0.55 -6.70 3.75 -14.45 18.30 -27.90 38.25 -35.25 13.60 -5.05 22.90 -6.75 38 -6.80 14.95 -0.05 22.90 1.15 35.25 5.25 6.05 2 16 6.85 21.20 10.35 11.85 7.85 21 20.80 21.60 30.60 0.20 2.75 0.20 2.75 -77.20 2.75 -42.60 0 -77.55 -0.10 -77.65 -0.20 z  m 143.60 -9.35 c -1.10 -8.20 -10.65 -17.90 -23.05 -23.45 -13.50 -6 -25.40 -8.25 -43.65 -8.25 -12.80 0 -20.20 0.90 -29.85 3.50 -6.95 1.95 -10.85 3.45 -16.25 6.35 -11.35 6.15 -18.60 14.20 -19.35 21.40 -0.30 2.75 -0.30 2.75 66.10 2.75 66.40 0 66.40 0 66.05 -2.30 z "/>
  <path d="M 238.65 259.20 c -2.40 -2.10 -5.20 -4.55 -6.15 -5.40 -3.40 -3 -8.70 -7.55 -10.50 -9.05 -2.15 -1.70 -33.60 -28.80 -34 -29.20 -0.15 -0.20 -1.70 -1.55 -3.50 -3.05 -1.80 -1.50 -3.35 -2.85 -3.50 -3 -0.15 -0.15 -1.70 -1.50 -3.50 -3 -1.80 -1.50 -3.35 -2.85 -3.50 -3 -0.30 -0.35 -26.85 -23.25 -32.50 -28 -2.10 -1.80 -6.60 -5.60 -9.90 -8.50 -6.10 -5.20 -6.10 -5.20 -4.20 -7.15 7.05 -7.25 21.05 -11 35.10 -9.40 11.45 1.35 18.65 3.45 29.30 8.60 11.10 5.40 20.45 12 30.30 21.40 9 8.60 15.05 16.85 20.65 28.30 3 6.20 6.25 15.10 6.25 17.25 0 2.30 0.85 0.70 1.90 -3.50 2.15 -8.85 7.20 -19.80 13.20 -28.60 5.95 -8.70 16.70 -20.10 25.20 -26.70 17.85 -13.85 41.20 -21.75 58.75 -19.80 9.55 1.10 16.05 3.60 21.15 8.25 2.40 2.15 4.45 -0.25 -17 19.55 -7.10 6.60 -14.75 13.70 -16.95 15.75 -2.20 2.10 -5.50 5.15 -7.25 6.80 -8 7.40 -10.20 9.40 -16.75 15.50 -3.85 3.60 -8.35 7.75 -10 9.25 -1.65 1.50 -4.55 4.25 -6.50 6.05 -1.90 1.80 -5.05 4.70 -7 6.50 -1.90 1.75 -4.95 4.55 -6.75 6.25 -1.80 1.65 -4.70 4.35 -6.50 6 -1.80 1.60 -3.60 3.30 -4 3.70 -0.40 0.40 -3.50 3.30 -6.85 6.40 -6.10 5.70 -6.10 5.70 -7.40 4.25 -0.70 -0.75 -1.65 -2.05 -2.05 -2.85 -0.80 -1.45 -0.80 -1.45 -2.30 1.10 -0.80 1.45 -1.70 2.60 -1.90 2.60 -0.25 0 -1.05 -1 -1.80 -2.25 -0.70 -1.25 -1.35 -2.25 -1.45 -2.25 -0.10 0 -0.85 1.15 -1.75 2.50 -0.90 1.40 -1.70 2.50 -1.75 2.50 -0.10 0 -2.15 -1.70 -4.60 -3.80 z  m 2.45 -11.55 c 1.80 -3.45 2.50 -6.75 2.45 -12 -0.05 -7.20 -1.90 -13.80 -6.30 -22.65 -6.05 -12.05 -13.60 -21.55 -25.35 -31.75 -10.60 -9.25 -20.55 -15.45 -31.60 -19.75 -14.35 -5.60 -27.65 -6.40 -36.10 -2.10 -2.70 1.35 -5.70 3.85 -5.15 4.25 0.85 0.70 21.75 18.60 21.95 18.85 0.25 0.25 12.15 10.50 32 27.50 5.90 5.10 10.85 9.35 11 9.50 0.15 0.15 1.70 1.50 3.50 3 1.80 1.50 3.90 3.35 4.75 4.10 5.35 4.75 27.05 23.35 27.30 23.35 0.15 0.05 0.85 -1 1.55 -2.30 z  m 26.40 -3.85 c 1.50 -1.40 5.80 -5.35 9.50 -8.80 3.70 -3.45 8.45 -7.85 10.50 -9.80 2.05 -1.90 5.20 -4.85 7 -6.50 1.80 -1.60 4.95 -4.55 7 -6.50 2.05 -1.90 5.20 -4.85 7 -6.50 1.80 -1.60 4.80 -4.45 6.75 -6.25 1.90 -1.80 5.05 -4.70 7 -6.50 1.90 -1.75 3.60 -3.30 3.75 -3.45 0.15 -0.15 3.30 -3.05 7 -6.50 3.70 -3.45 6.85 -6.35 7 -6.50 0.15 -0.15 3.05 -2.85 6.50 -6 9.65 -8.85 11.50 -10.65 11.50 -10.95 0 -0.15 -1.25 -1.15 -2.75 -2.20 -11.10 -7.70 -33.70 -3.35 -54 10.35 -7.75 5.25 -10.20 7.25 -17.70 14.55 -15.55 15.10 -25.45 32.65 -27.55 48.85 -0.90 6.60 0.45 13.40 3.30 17.15 1.50 1.95 1 2.20 8.20 -4.45 z "/>
 </g>
</svg>