<?xml version="1.0" encoding="utf-8"?>
<!DOCTYPE svg PUBLIC "-//W3C//DTD SVG 1.0//EN" "http://www.w3.org/TR/2001/REC-SVG-20010904/DTD/svg10.dtd">
<svg version="1.0" xmlns="http://www.w3.org/2000/svg" width="500px" height="500px" viewBox="0 0 500 500" preserveAspectRatio="xMidYMid meet">
 <g fill="#428504">
  <path d="M 32.45 351.20 c -1 -1.20 -1.30 -59.80 -0.30 -61.70 0.60 -1.20 0.80 -1.25 5.35 -1.25 4.55 0 4.75 0.05 5.35 1.25 0.50 0.90 0.65 4.30 0.60 12.75 0 11.50 0 11.50 5.25 11.50 4.85 0 5.30 -0.10 6.50 -1.20 0.70 -0.65 4.05 -6.05 7.35 -12 3.35 -5.95 6.45 -11.20 6.85 -11.65 0.60 -0.75 1.60 -0.90 5.60 -0.90 5.35 0 6.40 0.50 5.70 2.60 -0.30 1 -13.15 23.70 -15.55 27.45 -0.80 1.30 -0.80 1.40 0.90 3.35 0.95 1.10 5.05 7.75 9.10 14.80 5.55 9.60 7.40 13.15 7.25 14.15 -0.15 1.40 -0.15 1.40 -5.75 1.55 -5.60 0.15 -5.60 0.15 -6.50 -1.25 -0.50 -0.75 -3.75 -6.30 -7.20 -12.35 -7.40 -13.05 -7.10 -12.80 -14.55 -12.80 -4.90 0 -4.90 0 -4.90 11.90 0 8.55 -0.20 12.20 -0.65 13.10 -0.60 1.20 -0.90 1.25 -5.15 1.40 -3.80 0.10 -4.65 0 -5.25 -0.70 z "/>
  <path d="M 112.60 351.45 c -6.20 -1.05 -9.95 -4.50 -12.10 -11.20 -0.95 -2.90 -1.15 -5 -1.35 -12.25 -0.20 -7.90 -0.15 -8.90 0.75 -10.45 1.95 -3.55 1.85 -3.55 25.45 -3.55 24.45 0 22.15 -0.60 22.15 5.95 0 2.95 -0.20 4.20 -0.80 4.75 -0.65 0.70 -3.05 0.80 -18.55 0.80 -17.75 0 -17.75 0 -17.60 4.20 0.15 3.30 0.40 4.55 1.25 5.65 1.95 2.60 2.30 2.65 19.05 2.65 18.60 0 17.15 -0.60 17.15 7 0 7.60 1.45 7 -17.15 6.95 -8.60 -0.05 -16.80 -0.25 -18.25 -0.50 z "/>
  <path d="M 164.55 350.60 c -0.90 -2.15 -0.55 -34.65 0.40 -35.75 0.60 -0.75 2.55 -0.85 18.90 -0.85 12.10 0 18.55 -0.20 19.25 -0.55 2.10 -1.10 3.15 -7.15 1.90 -10.80 -1.10 -3.10 -1.50 -3.15 -21.65 -3.15 -13.60 0 -18.40 -0.15 -18.65 -0.60 -0.20 -0.30 -0.50 -2.35 -0.60 -4.50 -0.20 -3.05 -0.05 -4.15 0.60 -5.15 0.85 -1.30 0.85 -1.30 21.45 -1.15 20.40 0.15 20.60 0.15 22.95 1.30 5.10 2.50 7.35 7.15 7.75 15.85 0.40 8.25 -1.20 13.75 -4.85 17.15 -1.40 1.35 -4.15 2.60 -5.55 2.60 -0.55 0 -0.95 0.25 -0.95 0.55 0 0.35 3.05 5.80 6.75 12.15 3.70 6.40 6.75 11.95 6.75 12.35 0 1.60 -1.15 1.95 -6.35 1.95 -4.50 0 -5.25 -0.15 -6 -0.95 -0.45 -0.55 -3.90 -6.45 -7.70 -13.15 -6.85 -12.15 -6.85 -12.15 -15.05 -12.15 -8.15 0 -8.15 0 -8.30 12.45 -0.05 8.20 -0.30 12.70 -0.65 13.15 -0.40 0.45 -1.95 0.65 -5.20 0.65 -4.60 0 -4.65 0 -5.20 -1.40 z "/>
  <path d="M 235.85 351.65 c -0.85 -0.80 0 -3.50 4.85 -15.55 2.85 -7.05 7.70 -19.15 10.80 -26.85 7.60 -18.95 7.65 -19.05 11.20 -20.85 2.60 -1.35 6 -1.35 8.55 -0.05 2.35 1.25 3.30 2.20 4.65 4.90 0.80 1.60 12.15 29.35 21.70 53.15 2.15 5.40 2 5.60 -4.60 5.60 -5.50 0 -5.50 0 -6.40 -1.85 -0.50 -1.05 -5.05 -12.20 -10.05 -24.75 -5.05 -12.60 -9.30 -22.90 -9.50 -22.90 -0.25 0 -4.35 10.20 -9.95 24.55 -0.10 0.25 2.05 0.45 4.80 0.45 6 0 6.45 0.30 8.30 5.05 2.65 6.70 2.30 6.95 -9.15 6.95 -8.90 0 -8.90 0 -11 5.40 -1.15 2.95 -2.50 5.75 -2.90 6.25 -0.65 0.70 -1.70 0.85 -5.90 0.85 -2.80 0 -5.25 -0.15 -5.40 -0.35 z "/>
  <path d="M 328.35 351.45 c -5.80 -1.35 -9.25 -4.75 -11.40 -11.20 -1.15 -3.45 -1.15 -3.95 -1.35 -27.15 -0.10 -17.75 0 -23.85 0.45 -24.40 0.75 -0.95 9.70 -1 10.30 -0.05 0.20 0.30 0.50 10.95 0.65 23.60 0.25 21.40 0.30 23.15 1.20 24.95 1.60 3.15 2.35 3.30 18.50 3.30 12.25 0 14.35 0.10 15 0.80 0.60 0.55 0.80 1.80 0.80 4.75 0 6.50 1.50 5.95 -16.65 5.90 -8.60 -0.05 -16.45 -0.25 -17.50 -0.50 z "/>
  <path d="M 379.45 351.15 c -1 -1.15 -1.30 -59.75 -0.30 -61.65 0.60 -1.15 0.90 -1.25 5.05 -1.40 2.80 -0.10 4.65 0.05 5.10 0.45 0.60 0.50 0.70 5.60 0.70 31.40 0 23.35 -0.15 31 -0.60 31.45 -0.35 0.35 -2.25 0.60 -4.95 0.60 -3.40 0 -4.45 -0.15 -5 -0.85 z "/>
  <path d="M 407.10 351.40 c -0.35 -0.35 -0.60 -0.95 -0.60 -1.35 0.05 -0.45 4.95 -7.75 10.95 -16.25 10.95 -15.45 10.95 -15.45 1.55 -28.60 -5.20 -7.20 -9.65 -13.60 -10 -14.15 -0.40 -0.75 -0.40 -1.35 0 -2.05 0.50 -0.90 1.05 -1 6 -1 4.65 0 5.65 0.15 6.40 0.90 0.50 0.50 3.90 5.25 7.55 10.55 3.65 5.30 6.80 9.55 7.05 9.45 0.20 -0.10 3.60 -4.55 7.50 -9.90 3.90 -5.35 7.50 -10.05 7.90 -10.35 0.50 -0.45 2.55 -0.65 5.85 -0.65 5.10 0 6.25 0.35 6.25 1.95 0 0.45 -4.50 7 -10 14.55 -5.50 7.55 -10 14 -10 14.30 0 0.35 4.50 7 10 14.90 5.50 7.85 10.30 14.85 10.60 15.55 1.05 2.30 0 2.75 -6.40 2.75 -5.65 0 -5.65 0 -13.45 -11.10 -4.35 -6.15 -8.15 -11.45 -8.50 -11.80 -0.50 -0.55 -2.05 1.35 -8.50 10.50 -4.35 6.15 -8.25 11.45 -8.65 11.80 -1.05 0.80 -10.65 0.85 -11.50 0 z "/>
  <path d="M 99.80 298.70 c -1 -0.95 -1.15 -9.15 -0.20 -10.10 0.45 -0.45 6.45 -0.60 24 -0.60 27.20 0 24.60 -0.70 24.30 6.35 -0.10 3.05 -0.35 4.30 -0.90 4.65 -0.45 0.30 -10.05 0.50 -23.60 0.50 -20.10 0 -22.90 -0.10 -23.60 -0.80 z "/>
 </g>
 <g fill="#ddb117">
  <path d="M 54 393.50 c 0 -5.45 0 -5.45 5.90 -5.60 5.85 -0.15 5.85 -0.15 5.85 -1.90 0 -1.75 0 -1.75 -5.75 -2 -5.75 -0.25 -5.75 -0.25 -5.90 -1.85 -0.15 -1.65 -0.15 -1.65 5.85 -1.65 7.20 0 8.25 0.35 9.05 2.75 1.05 3.20 -0.30 7.75 -2.35 7.75 -0.90 0 -0.90 -0.05 1.35 3.90 1.10 1.90 2 3.60 2 3.80 0 0.20 -0.85 0.30 -1.85 0.20 -1.75 -0.15 -2 -0.35 -3.90 -3.75 -2 -3.65 -2 -3.65 -4.35 -3.65 -2.40 0 -2.40 0 -2.40 3.75 0 3.75 0 3.75 -1.75 3.75 -1.75 0 -1.75 0 -1.75 -5.50 z "/>
  <path d="M 76.45 397.70 c -1.10 -1.20 -1.20 -1.70 -1.35 -7.65 -0.15 -6.20 -0.15 -6.45 1.05 -7.85 1.20 -1.40 1.45 -1.45 6.15 -1.65 8 -0.25 9.20 0.95 9.20 9.30 0 4.80 -0.95 7.75 -2.80 8.60 -0.70 0.30 -3.45 0.55 -6.15 0.55 -4.60 0 -4.95 -0.05 -6.10 -1.30 z  m 10.95 -2.80 c 0.80 -0.80 0.80 -9.50 0 -10.30 -0.35 -0.35 -2.15 -0.60 -4.50 -0.60 -3.75 0 -3.95 0.05 -4.40 1.30 -0.30 0.70 -0.50 2.70 -0.50 4.45 0 1.75 0.20 3.75 0.50 4.45 0.45 1.25 0.65 1.30 4.40 1.30 2.35 0 4.15 -0.25 4.50 -0.60 z "/>
  <path d="M 98.15 398.25 c -1.50 -1.05 -2.15 -3.70 -2.15 -8.80 0 -7.95 1.25 -9.15 9.10 -8.90 6.85 0.25 7.10 0.55 7.30 8.40 0.25 9.15 -0.50 10.05 -8.55 10.05 -3.35 0 -4.95 -0.20 -5.70 -0.75 z  m 10.75 -3.60 c 0.45 -1.15 0.45 -8.65 0 -9.75 -0.50 -1.25 -8.65 -1.35 -9.10 -0.10 -0.55 1.45 -0.35 9.45 0.30 10.10 0.35 0.35 2.15 0.60 4.50 0.60 3.30 0 4 -0.15 4.30 -0.85 z "/>
  <path d="M 124 391.50 c 0 -7.45 0 -7.45 -3.10 -7.60 -3.15 -0.15 -3.15 -0.15 -3.30 -1.75 -0.15 -1.65 -0.15 -1.65 7.85 -1.65 5.05 0 8.10 0.20 8.30 0.55 0.20 0.25 0.20 1.05 0.05 1.75 -0.30 1.10 -0.55 1.20 -3.30 1.20 -3 0 -3 0 -3 7.50 0 7.50 0 7.50 -1.75 7.50 -1.75 0 -1.75 0 -1.75 -7.50 z "/>
  <path d="M 140.25 397.80 c -1.35 -1.10 -1.50 -1.45 -1.65 -5.05 -0.15 -2.90 -0.05 -4 0.45 -4.30 0.40 -0.25 3.60 -0.45 7.10 -0.45 6.40 0 6.40 0 6.25 1.65 -0.15 1.60 -0.15 1.60 -5.50 1.75 -3 0.05 -5.40 0.35 -5.40 0.60 0 0.25 0.20 1 0.50 1.70 0.45 1.30 0.55 1.30 5.50 1.30 5 0 5 0 5 2 0 2 0 2 -5.35 2 -4.95 0 -5.55 -0.10 -6.90 -1.20 z "/>
  <path d="M 157.70 398.35 c -0.10 -0.35 -0.15 -4.45 -0.10 -9.10 0.15 -8.50 0.15 -8.50 5.65 -8.65 3.70 -0.05 5.90 0.10 6.75 0.55 2.15 1.05 3 3.55 3 8.60 0 5.05 -0.85 7.55 -3 8.60 -1.75 0.90 -11.95 0.90 -12.30 0 z  m 11.20 -3.45 c 0.90 -0.90 0.80 -9.60 -0.10 -10.35 -0.45 -0.35 -2.10 -0.55 -4.40 -0.45 -3.65 0.15 -3.65 0.15 -3.80 5.80 -0.15 5.60 -0.15 5.60 3.80 5.60 2.35 0 4.15 -0.25 4.50 -0.60 z "/>
  <path d="M 195.90 398.15 c -0.70 -0.90 -5.40 -15.90 -5.40 -17.35 0 -1.15 2.85 -1.05 3.40 0.10 0.25 0.45 1.20 3.50 2.15 6.70 0.90 3.25 1.80 5.75 2 5.50 0.20 -0.20 1.20 -3.10 2.25 -6.50 1.65 -5.40 2 -6.15 3.10 -6.45 0.70 -0.15 1.60 -0.05 2.05 0.20 0.45 0.30 1.55 3.15 2.55 6.55 0.95 3.30 1.90 6.15 2.05 6.30 0.15 0.15 1.10 -2.45 2.15 -5.85 1.05 -3.35 2.15 -6.40 2.40 -6.70 0.65 -0.80 3.40 -0.85 3.40 -0.10 0 1.10 -5 16.15 -5.75 17.30 -1.05 1.55 -3.45 1.60 -4.40 0.05 -0.40 -0.65 -1.35 -3.35 -2.10 -6.05 -0.90 -3.15 -1.55 -4.65 -1.85 -4.25 -0.20 0.35 -1.10 2.85 -1.95 5.55 -1.55 4.85 -2.25 5.85 -4.35 5.85 -0.50 0 -1.30 -0.40 -1.70 -0.85 z "/>
  <path d="M 223 389.75 c 0 -9.25 0 -9.25 1.50 -9.25 1.50 0 1.50 0 1.50 9.25 0 9.25 0 9.25 -1.50 9.25 -1.50 0 -1.50 0 -1.50 -9.25 z "/>
  <path d="M 237.50 391.50 c 0 -7.45 0 -7.45 -3.10 -7.60 -3.15 -0.15 -3.15 -0.15 -3.30 -1.75 -0.15 -1.65 -0.15 -1.65 7.85 -1.65 5.05 0 8.10 0.20 8.30 0.55 0.20 0.25 0.20 1.05 0.05 1.75 -0.30 1.10 -0.55 1.20 -3.30 1.20 -3 0 -3 0 -3 7.50 0 7.50 0 7.50 -1.75 7.50 -1.75 0 -1.75 0 -1.75 -7.50 z "/>
  <path d="M 251.90 390.25 c -0.10 -4.80 -0.05 -9 0 -9.25 0.10 -0.30 0.85 -0.50 1.65 -0.50 1.45 0 1.45 0 1.45 3.75 0 3.75 0 3.75 4.25 3.75 4.20 0 4.20 0 4.35 -3.60 0.15 -3.65 0.15 -3.65 1.80 -3.80 1.60 -0.15 1.60 -0.15 1.60 9.15 0 9.30 0 9.30 -1.60 9.15 -1.65 -0.15 -1.65 -0.15 -1.80 -3.75 -0.15 -3.65 -0.15 -3.65 -4.35 -3.65 -4.25 0 -4.25 0 -4.25 3.75 0 3.75 0 3.75 -1.50 3.75 -1.45 0 -1.45 0 -1.60 -8.75 z "/>
  <path d="M 291 391.55 c 0 -7.50 0 -7.50 -3.10 -7.65 -3.15 -0.15 -3.15 -0.15 -3.30 -1.80 -0.15 -1.65 -0.15 -1.65 8 -1.50 8.15 0.15 8.15 0.15 8.15 1.65 0 1.50 0 1.50 -3.10 1.65 -3.10 0.15 -3.10 0.15 -3.25 7.50 -0.15 7.35 -0.15 7.35 -1.75 7.50 -1.65 0.15 -1.65 0.15 -1.65 -7.35 z "/>
  <path d="M 305.50 393.50 c 0 -5.45 0 -5.45 5.90 -5.60 5.85 -0.15 5.85 -0.15 5.85 -1.90 0 -1.75 0 -1.75 -5.75 -2 -5.75 -0.25 -5.75 -0.25 -5.90 -1.85 -0.15 -1.65 -0.15 -1.65 6.05 -1.65 7.40 0 8.55 0.55 9.10 4.20 0.40 2.60 -0.75 5.75 -2.25 6.15 -0.55 0.15 -1 0.35 -1 0.40 0 0.10 0.90 1.70 2 3.55 1.10 1.90 2 3.60 2 3.85 0 0.20 -0.85 0.35 -1.85 0.25 -1.75 -0.15 -2 -0.35 -3.90 -3.75 -2 -3.65 -2 -3.65 -4.35 -3.65 -2.40 0 -2.40 0 -2.40 3.75 0 3.75 0 3.75 -1.75 3.75 -1.75 0 -1.75 0 -1.75 -5.50 z "/>
  <path d="M 326 398.75 c 0 -0.60 6.60 -16.70 7.15 -17.40 1.10 -1.40 2.75 -1.50 3.90 -0.25 0.95 1.05 7.45 16.25 7.45 17.40 0 0.30 -0.75 0.50 -1.70 0.50 -1.70 0 -1.70 0 -4.30 -6.60 -1.45 -3.65 -2.80 -6.85 -3 -7.05 -0.25 -0.25 -0.85 0.75 -1.40 2.25 -0.55 1.45 -1.15 3.05 -1.35 3.55 -0.30 0.70 -0.10 0.85 1.20 0.85 1 0 1.70 0.35 2.05 1.05 0.95 1.75 0.30 2.45 -2.50 2.45 -2.45 0 -2.60 0.10 -3.30 1.75 -0.60 1.55 -0.95 1.75 -2.45 1.75 -0.95 0 -1.75 -0.10 -1.75 -0.25 z "/>
  <path d="M 350.10 398.60 c -0.45 -0.35 -0.60 -2.50 -0.50 -9.15 0.15 -8.70 0.15 -8.70 5.65 -8.85 3.70 -0.05 5.90 0.10 6.75 0.55 2.15 1.05 3 3.55 3 8.60 0 5.05 -0.85 7.55 -3 8.60 -1.40 0.70 -10.85 0.90 -11.90 0.25 z  m 10.80 -3.70 c 0.90 -0.90 0.80 -9.60 -0.10 -10.35 -0.45 -0.35 -2.10 -0.55 -4.40 -0.45 -3.65 0.15 -3.65 0.15 -3.80 5.80 -0.15 5.60 -0.15 5.60 3.80 5.60 2.35 0 4.15 -0.25 4.50 -0.60 z "/>
  <path d="M 370 389.75 c 0 -9.25 0 -9.25 1.50 -9.25 1.50 0 1.50 0 1.50 9.25 0 9.25 0 9.25 -1.50 9.25 -1.50 0 -1.50 0 -1.50 -9.25 z "/>
  <path d="M 384.35 398.65 c -0.20 -0.15 -0.35 -3.55 -0.35 -7.50 0 -7.15 0 -7.15 -2.95 -7.15 -2.65 0 -2.95 -0.10 -3.15 -1.15 -0.45 -2.30 -0.25 -2.35 8.15 -2.35 8 0 8 0 7.85 1.65 -0.15 1.60 -0.15 1.60 -3.25 1.75 -3.15 0.15 -3.15 0.15 -3.15 7.60 0 7.50 0 7.50 -1.40 7.50 -0.80 0 -1.60 -0.15 -1.75 -0.35 z "/>
  <path d="M 399 389.75 c 0 -9.25 0 -9.25 1.50 -9.25 1.50 0 1.50 0 1.50 9.25 0 9.25 0 9.25 -1.50 9.25 -1.50 0 -1.50 0 -1.50 -9.25 z "/>
  <path d="M 408.45 397.70 c -1.10 -1.20 -1.20 -1.70 -1.35 -7.65 -0.15 -6.20 -0.15 -6.45 1.05 -7.85 1.20 -1.40 1.45 -1.45 6.15 -1.65 8 -0.25 9.20 0.95 9.20 9.30 0 4.80 -0.95 7.75 -2.80 8.60 -0.70 0.30 -3.45 0.55 -6.15 0.55 -4.60 0 -4.95 -0.05 -6.10 -1.30 z  m 10.95 -2.80 c 0.40 -0.40 0.60 -2.30 0.60 -5.15 0 -2.85 -0.20 -4.75 -0.60 -5.15 -0.35 -0.35 -2.15 -0.60 -4.50 -0.60 -3.75 0 -3.95 0.05 -4.40 1.30 -0.30 0.70 -0.50 2.70 -0.50 4.45 0 1.75 0.20 3.75 0.50 4.45 0.45 1.25 0.65 1.30 4.40 1.30 2.35 0 4.15 -0.25 4.50 -0.60 z "/>
  <path d="M 428 390.35 c 0 -6.05 0.20 -8.85 0.60 -9.25 0.35 -0.35 1.45 -0.60 2.50 -0.60 2.15 0 2.25 0.10 7.20 9 2.95 5.25 2.95 5.25 3.10 -1.85 0.15 -7.15 0.15 -7.15 1.60 -7.15 1.50 0 1.50 0 1.50 8.65 0 4.70 -0.20 8.90 -0.45 9.25 -0.25 0.45 -1.15 0.60 -2.55 0.50 -2.15 -0.15 -2.15 -0.15 -5.95 -6.90 -3.80 -6.75 -3.80 -6.75 -3.95 0.15 -0.15 6.85 -0.15 6.85 -1.85 6.85 -1.75 0 -1.75 0 -1.75 -8.65 z "/>
  <path d="M 138.55 383.05 c -0.30 -0.55 -0.40 -1.35 -0.25 -1.75 0.25 -0.70 1.40 -0.80 7.30 -0.80 6.95 0 6.95 0 6.80 1.65 -0.15 1.60 -0.15 1.60 -6.75 1.75 -6.10 0.10 -6.65 0.05 -7.10 -0.85 z "/>
  <path d="M261.35 235.30 C 261.35 241.60 256.25 246.70 250 246.70 243.70 246.70 238.60 241.60 238.60 235.30 238.60 229 243.70 223.95 250 223.95 256.25 223.95 261.35 229 261.35 235.30 Z M246 246.15  M259.30 235.35 C 259.30 230.20 255.15 226 250 226 244.85 226 240.65 230.20 240.65 235.35 240.65 240.50 244.85 244.65 250 244.65 255.15 244.65 259.30 240.50 259.30 235.35 Z M254.85 243.20 "/>
  <path d="M244.10 214.75 C 244.10 221 239 226.05 232.75 226.05 226.50 226.05 221.40 221 221.40 214.75 221.40 208.50 226.50 203.40 232.75 203.40 239 203.40 244.10 208.50 244.10 214.75 Z M228.25 225.20  M242.05 214.80 C 242.05 209.65 237.85 205.45 232.70 205.45 227.60 205.45 223.40 209.65 223.40 214.80 223.40 219.90 227.60 224.10 232.70 224.10 237.85 224.10 242.05 219.90 242.05 214.80 Z M237.40 222.90 "/>
  <path d="M278.55 214.70 C 278.55 220.95 273.50 226.05 267.25 226.05 261 226.05 255.90 220.95 255.90 214.70 255.90 208.45 261 203.40 267.25 203.40 273.50 203.40 278.55 208.45 278.55 214.70 Z M262.75 225.15  M276.55 214.80 C 276.55 209.70 272.40 205.50 267.25 205.50 262.10 205.50 257.95 209.70 257.95 214.80 257.95 219.95 262.10 224.10 267.25 224.10 272.40 224.10 276.55 219.95 276.55 214.80 Z M271.95 222.90 "/>
  <path d="M 152.15 192 c 0.70 -5.90 6.65 -13.60 14.05 -18.25 4.55 -2.85 12.20 -5.85 17.95 -7.10 5.20 -1.10 22 -1.25 26.60 -0.25 12.35 2.75 21.60 7.60 27.90 14.60 2.75 3.05 5.20 7.85 5.65 11.15 0.30 2.35 0.30 2.35 -46.05 2.35 -46.40 0 -46.40 0 -46.10 -2.50 z  m 85.55 -3.35 c -1.70 -7.40 -12.15 -14.60 -25.15 -17.45 -5.95 -1.30 -19.15 -1.50 -25.60 -0.45 -9.65 1.60 -18.30 5.35 -23.15 9.95 -2.90 2.80 -4.80 6 -4.80 8.05 0 1.25 0 1.25 39.50 1.25 39.50 0 39.50 0 39.20 -1.35 z "/>
  <path d="M 255.65 192 c 1.05 -9 10.20 -17.90 23.35 -22.80 7.55 -2.80 11.55 -3.40 22.50 -3.45 10.80 0 13.70 0.45 22 3.35 8.75 3.05 17.50 9.40 21.25 15.40 1.45 2.30 3.25 7.30 3.25 9.05 0 0.95 -1.05 0.95 -46.30 0.95 -46.35 0 -46.35 0 -46.05 -2.50 z  m 85.20 -3.75 c -0.15 -0.95 -1.10 -2.95 -2.10 -4.35 -4.05 -5.80 -12.35 -10.35 -23.15 -12.75 -5.45 -1.20 -19 -1.45 -25.15 -0.45 -14.80 2.40 -26.55 9.75 -28.20 17.70 -0.35 1.60 -0.35 1.60 39.30 1.60 39.60 0 39.60 0 39.30 -1.75 z "/>
  <path d="M 242.70 175.10 c -1.40 -1.30 -4.55 -4.05 -7 -6.15 -2.45 -2.05 -7.05 -6 -10.20 -8.75 -8.30 -7.20 -48.50 -41.75 -49.45 -42.55 -0.55 -0.45 2.50 -2.85 5.45 -4.35 8.85 -4.40 22.15 -3.25 34.65 3 15.20 7.65 27.35 21.10 32.30 35.80 1.35 4.05 1.35 4.05 2.50 0.15 1.35 -4.70 4.75 -11.60 8.20 -16.75 5 -7.40 16.30 -17.20 24.75 -21.45 8.10 -4.05 18.90 -6.20 26 -5.15 3.75 0.55 8.85 2.70 11.10 4.60 1.25 1.10 1.25 1.10 -3.05 5.15 -2.35 2.25 -7.10 6.70 -10.50 9.85 -3.40 3.15 -7.75 7.20 -9.70 9 -1.90 1.85 -5.05 4.75 -7 6.55 -1.90 1.75 -3.60 3.30 -3.75 3.45 -0.15 0.15 -2.05 1.95 -4.25 4 -2.20 2.05 -5.55 5.20 -7.50 7 -3 2.80 -12.90 12 -18.75 17.35 -0.95 0.90 -1.90 1.65 -2.10 1.65 -0.20 0 -0.75 -0.55 -1.20 -1.25 -0.45 -0.70 -1 -1.25 -1.25 -1.25 -0.25 0 -0.70 0.55 -0.95 1.25 -0.25 0.70 -0.70 1.25 -1 1.25 -0.30 0 -0.80 -0.55 -1.10 -1.25 -0.30 -0.70 -0.70 -1.25 -0.90 -1.25 -0.20 0 -0.75 0.55 -1.20 1.25 -0.45 0.70 -1 1.25 -1.20 1.25 -0.20 0 -1.50 -1.10 -2.90 -2.40 z  m 1.85 -6.45 c 1.15 -1.95 1.50 -3.75 1.50 -7.30 0 -9.60 -7.40 -22.45 -18.60 -32.10 -4.45 -3.90 -5.25 -4.50 -9.35 -7.05 -9.70 -6.10 -21.55 -9.10 -28.55 -7.20 -2.05 0.55 -5.15 2.45 -5.35 3.25 -0.05 0.30 0.90 1.35 2.20 2.45 1.30 1.05 3.70 3.10 5.35 4.55 1.65 1.45 5.05 4.35 7.50 6.50 2.50 2.15 5.05 4.35 5.75 4.95 0.70 0.60 6.10 5.25 12 10.30 5.90 5.05 10.85 9.35 11 9.50 0.15 0.15 1.70 1.50 3.50 3 1.80 1.50 3.35 2.85 3.50 3 0.15 0.15 1.70 1.50 3.50 3 1.80 1.50 3.60 3.10 4 3.60 1 1.15 1.15 1.15 2.05 -0.45 z  m 12.90 0.50 c 0.45 -0.50 3.60 -3.50 7.05 -6.65 3.45 -3.15 7.85 -7.20 9.75 -9 1.95 -1.85 5.05 -4.75 7 -6.55 1.90 -1.75 5.05 -4.70 7 -6.50 1.90 -1.80 5.05 -4.70 7 -6.50 1.90 -1.75 5.05 -4.70 7 -6.50 3.15 -2.95 9.50 -8.80 11.10 -10.30 0.35 -0.30 0.65 -0.75 0.65 -1 -0.05 -1.45 -6.30 -3.65 -10.35 -3.65 -6.65 0 -16.95 4.05 -25.10 9.85 -5.20 3.70 -13.20 11.80 -16.55 16.70 -7.65 11.15 -10.30 21.90 -7.05 28.60 0.60 1.30 1.25 2.35 1.40 2.35 0.15 0 0.65 -0.40 1.10 -0.85 z "/>
 </g>
</svg>