<svg xmlns="http://www.w3.org/2000/svg" version="1.0" preserveAspectRatio="xMidYMid meet" viewBox="26 83.08 250.2 79.92">
<metadata>
Created by potrace 1.10, written by Peter Selinger 2001-2011
</metadata>
<g transform="translate(0.000000,300.000000) scale(0.050000,-0.050000)" fill="#000000" stroke="none">
<path d="M4422 4324 c-12 -23 -22 -74 -22 -115 0 -62 -5 -71 -35 -59 -104 43 -169 51 -245 30 -88 -24 -90 -59 -4 -61 119 -4 136 -30 37 -58 -55 -16 -129 -59 -179 -103 l-84 -77 80 26 c44 15 116 33 160 41 l80 14 -68 -55 c-118 -95 -193 -311 -77 -222 36 27 94 64 130 82 l64 34 -21 -56 c-23 -61 -6 -225 23 -225 11 0 19 16 19 35 1 54 96 243 99 195 2 -35 8 -33 53 20 l51 60 -11 -400 c-6 -220 -23 -465 -38 -545 l-28 -145 76 0 c75 0 76 1 90 94 18 120 -7 608 -41 816 -30 184 -28 193 37 132 45 -42 49 -43 56 -9 6 27 30 3 92 -91 l84 -128 0 84 c0 46 -14 111 -31 143 -39 76 -13 78 139 11 93 -41 108 -44 98 -15 -24 67 -110 164 -182 204 l-74 41 158 -8 c156 -8 157 -8 110 28 -61 47 -157 80 -247 84 -92 5 -90 8 33 62 l104 46 -69 13 c-76 14 -178 -9 -251 -56 -61 -41 -68 -39 -68 14 0 82 -71 168 -98 119z"/>
<path d="M520 3150 l0 -390 89 0 89 0 6 164 6 164 140 -164 140 -163 115 0 c143 -1 147 -15 -55 214 -146 166 -166 197 -143 224 14 17 82 96 150 177 148 175 147 164 18 163 l-105 -1 -120 -149 c-148 -183 -150 -183 -150 1 l0 150 -90 0 -90 0 0 -390z"/>
<path d="M1400 3150 l0 -390 230 0 230 0 0 70 0 70 -141 0 -141 0 6 85 6 85 125 6 125 6 0 69 0 69 -130 0 -130 0 0 80 0 80 140 0 140 0 0 80 0 80 -230 0 -230 0 0 -390z"/>
<path d="M2080 3150 l0 -390 89 0 89 0 6 154 6 154 118 -154 118 -154 109 0 c125 0 129 -16 -42 186 l-98 115 73 71 c65 63 72 80 71 174 -1 184 -74 234 -343 234 l-196 0 0 -390z m321 229 c88 -47 40 -169 -71 -182 -59 -7 -60 -6 -66 98 -7 113 35 139 137 84z"/>
<path d="M3002 3216 c-71 -179 -141 -355 -156 -391 l-27 -65 99 0 c90 0 99 4 111 55 24 93 46 105 195 105 l139 0 32 -80 c30 -78 34 -80 126 -80 l96 0 -155 385 -156 385 -88 6 -88 5 -128 -325z m264 -31 c45 -126 46 -125 -46 -125 -91 0 -95 11 -47 134 41 109 51 108 93 -9z"/>
<path d="M3780 3150 l0 -390 220 0 220 0 0 70 0 70 -130 0 -130 0 0 320 0 320 -90 0 -90 0 0 -390z"/>
<path d="M4800 3530 c0 -6 51 -87 114 -182 83 -124 109 -179 95 -199 -10 -15 -76 -109 -145 -208 l-126 -181 108 0 108 0 84 120 c47 66 93 120 103 120 9 0 54 -54 99 -120 l81 -120 111 0 c128 0 131 -18 -45 224 -152 209 -150 177 -21 358 58 81 113 159 121 173 12 19 -11 25 -93 25 -107 0 -108 -1 -176 -100 -83 -122 -79 -122 -158 0 -63 98 -66 100 -162 100 -54 0 -98 -5 -98 -10z"/>
</g>
</svg>